<svg xmlns="http://www.w3.org/2000/svg" xmlns:xlink="http://www.w3.org/1999/xlink" width="32" height="32" viewBox="0 0 32 32"><defs><clipPath id="a"><rect width="32" height="32" transform="translate(457 1286)" fill="none" stroke="#707070" stroke-width="1"/></clipPath></defs><g transform="translate(-457 -1286)"><path d="M0,0H32V32H0Z" transform="translate(457 1286)"/><g clip-path="url(#a)"><g transform="translate(460.101 1290.3)"><g transform="translate(0)"><path d="M3.5,7.169a.333.333,0,0,0,.33-.33.308.308,0,0,0-.33-.3.328.328,0,0,0-.33.3A.354.354,0,0,0,3.5,7.169Z" transform="translate(-0.742 -2.285)" fill="none" stroke="#ffd880" stroke-width="0.337"/><path d="M3.161,16.315a.6.6,0,1,0,.6.6A.6.6,0,0,0,3.161,16.315Z" transform="translate(-0.674 -3.371)" fill="none" stroke="#ffd880" stroke-width="0.337"/><path d="M7.172,17.6a.6.6,0,1,0,.6.6A.6.6,0,0,0,7.172,17.6Z" transform="translate(-1.12 -3.513)" fill="none" stroke="#ffd880" stroke-width="0.337"/><path d="M6.5,20.966a.6.6,0,1,0,.6.6A.6.6,0,0,0,6.5,20.966Z" transform="translate(-1.045 -3.888)" fill="none" stroke="#ffd880" stroke-width="0.337"/><path d="M4.644,19.146a.6.6,0,1,0,.6.6A.6.6,0,0,0,4.644,19.146Z" transform="translate(-0.839 -3.685)" fill="none" stroke="#ffd880" stroke-width="0.337"/><path d="M3.086,10.172a.6.6,0,1,0-.6.6A.621.621,0,0,0,3.086,10.172Z" transform="translate(-0.599 -2.622)" fill="none" stroke="#ffd880" stroke-width="0.337"/><path d="M4.434,13a.6.6,0,1,0-.6.6A.6.6,0,0,0,4.434,13Z" transform="translate(-0.749 -2.936)" fill="none" stroke="#ffd880" stroke-width="0.337"/><path d="M5.318,15a.6.6,0,1,0,.6.6A.6.6,0,0,0,5.318,15Z" transform="translate(-0.914 -3.225)" fill="none" stroke="#ffd880" stroke-width="0.337"/><path d="M10.341,19.03a.6.6,0,1,0-.6-.6A.6.6,0,0,0,10.341,19.03Z" transform="translate(-1.472 -3.539)" fill="none" stroke="#ffd880" stroke-width="0.337"/><path d="M15.33,25.348a.6.6,0,1,0,.6.6A.6.6,0,0,0,15.33,25.348Z" transform="translate(-2.026 -4.375)" fill="none" stroke="#ffd880" stroke-width="0.337"/><path d="M9.33,24a.6.6,0,1,0,.6.6A.583.583,0,0,0,9.33,24Z" transform="translate(-1.36 -4.225)" fill="none" stroke="#ffd880" stroke-width="0.337"/><path d="M10.341,20.9a.6.6,0,1,0,.6.6A.566.566,0,0,0,10.341,20.9Z" transform="translate(-1.472 -3.88)" fill="none" stroke="#ffd880" stroke-width="0.337"/><path d="M11.858,25.449a.6.6,0,1,0,.6.6A.6.6,0,0,0,11.858,25.449Z" transform="translate(-1.64 -4.386)" fill="none" stroke="#ffd880" stroke-width="0.337"/><path d="M13.476,23.562a.6.6,0,1,0,.6.6A.6.6,0,0,0,13.476,23.562Z" transform="translate(-1.82 -4.176)" fill="none" stroke="#ffd880" stroke-width="0.337"/><path d="M17.075,22.543a.6.6,0,1,0-.6.6A.566.566,0,0,0,17.075,22.543Z" transform="translate(-2.154 -3.996)" fill="none" stroke="#ffd880" stroke-width="0.337"/><path d="M3.348,8.213A1.528,1.528,0,1,0,1.82,6.685,1.554,1.554,0,0,0,3.348,8.213Zm0-2.4a.9.9,0,1,1-.9.9A.921.921,0,0,1,3.348,5.816Z" transform="translate(-0.592 -2.131)" fill="none" stroke="#ffd880" stroke-width="0.337"/><path d="M25.577,11.491a.928.928,0,0,0-1.049.9,10.856,10.856,0,0,1-8.39,10.547l2.607-4.614.03-.03a1.2,1.2,0,0,0,.09-.449.735.735,0,0,1,.33.539l.629-.03a1.284,1.284,0,0,0-1.079-1.228c-.03-.03-.03-.09-.06-.12a.685.685,0,0,1,.3-.21.6.6,0,0,1,.509.03l.27-.569a1.258,1.258,0,0,0-.989-.06,1.488,1.488,0,0,0-.569.39c-.03-.03-.06-.03-.09-.06-.06-.03-.12-.03-.18-.06a.83.83,0,0,1,.03-.27.608.608,0,0,1,.36-.36l-.27-.569a1.25,1.25,0,0,0-.689.719,1.522,1.522,0,0,0-.09.509,1.358,1.358,0,0,0-.569.33.646.646,0,0,1,.15-.569l-.479-.419a1.312,1.312,0,0,0-.03,1.678c0,.06-.03.09-.03.15a1,1,0,0,1-1.2.749,3.154,3.154,0,0,0-3.356,1.228,3.628,3.628,0,0,0-.929-1.258l3.416-2.457.12-.12a.794.794,0,0,0,.15-.18.706.706,0,0,1,.09.6l.6.21a1.322,1.322,0,0,0-.449-1.5v-.03a1.5,1.5,0,0,0-.06-.36.689.689,0,0,1,.779.12l.449-.449a1.324,1.324,0,0,0-1.528-.24c.03.12,0,.09,0,.06a.753.753,0,0,1,.18-.419.68.68,0,0,1,.479-.18v-.629a1.34,1.34,0,0,0-.929.36,1.358,1.358,0,0,0-.33.569c-.06,0-.12-.03-.21-.03a2.313,2.313,0,0,0-.449.06.687.687,0,0,1,.36-.449l-.27-.569a1.312,1.312,0,0,0-.719,1.5l-.09.18a1.157,1.157,0,0,1-1.408.449,34.305,34.305,0,0,0-4.434-1.558v-.629l4.375.9.749-3.476L9.637,11.251,8.408,9.6,6.551,10.921a1.685,1.685,0,0,1-1.438-.929H6.491a.794.794,0,1,0,0-1.588H5.112a1.762,1.762,0,0,1,1.408-.929L8.109,9.243l1.5-1.5,1.708,1.708V5.948H7.929L5.921,3.94h0l-1.5-2.187L3.195,3.581,1.936,1.753.438,3.94h0v8.569a13.094,13.094,0,0,0,26.187.03A1.024,1.024,0,0,0,25.577,11.491ZM6.491,9a.18.18,0,1,1,0,.36H4.933v-.18A.38.38,0,0,1,4.963,9ZM5.142,3.94H3.674l.719-1.079ZM1.936,2.861,2.655,3.94H1.217Zm11.6,22.112A12.493,12.493,0,0,1,1.067,12.509V4.569H5.652L7.659,6.577h3.056V7.925L9.637,6.846l-1.5,1.5L6.79,6.846H6.64a2.367,2.367,0,1,0,0,4.734h.09L8.258,10.5l1.2,1.558,1.348-.749-.3,1.528L6.011,11.91V13.8l.24.06a39.407,39.407,0,0,1,4.524,1.558,1.777,1.777,0,0,0,2.247-.659l.03-.06a1.3,1.3,0,0,1,.12-.21.465.465,0,0,1,.419-.15.592.592,0,0,1,.419.18.465.465,0,0,1,.15.419.592.592,0,0,1-.18.419l-.03.03a.029.029,0,0,1-.03.03L9.846,18.352l.33.27a2.6,2.6,0,0,1,1.2,1.828h.03l.6.21a2.527,2.527,0,0,1,3.056-1.618,1.648,1.648,0,0,0,1.948-1.258v-.03a.6.6,0,0,1,.06-.27.653.653,0,0,1,.839-.36.642.642,0,0,1,.3.36.83.83,0,0,1,0,.539l-3.3,5.783.659-.12a11.522,11.522,0,0,0,9.588-11.3c0-.18.15-.27.419-.27a.41.41,0,0,1,.419.419A12.468,12.468,0,0,1,13.532,24.974Z" transform="translate(-0.438 -1.753)" fill="none" stroke="#ffd880" stroke-width="0.337"/></g></g></g></g></svg>