<svg xmlns="http://www.w3.org/2000/svg" xmlns:xlink="http://www.w3.org/1999/xlink" width="16" height="16" viewBox="0 0 16 16"><defs><clipPath id="a"><rect width="16" height="16" transform="translate(457 1286)" fill="none" stroke="#707070" stroke-width="1"/></clipPath></defs><g transform="translate(-458 -1328)"><rect width="16" height="16" transform="translate(458 1328)"/><g transform="translate(1 42)" clip-path="url(#a)"><g transform="translate(458.551 1288.15)"><g transform="translate(0)"><path d="M3.333,6.854A.166.166,0,0,0,3.5,6.689a.154.154,0,0,0-.165-.15.164.164,0,0,0-.165.15A.177.177,0,0,0,3.333,6.854Z" transform="translate(-1.955 -4.412)" fill="none" stroke="#ffd880" stroke-width="0.337"/><path d="M2.861,16.315a.3.3,0,1,0,.3.3A.3.3,0,0,0,2.861,16.315Z" transform="translate(-1.618 -9.843)" fill="none" stroke="#ffd880" stroke-width="0.337"/><path d="M6.873,17.6a.3.3,0,1,0,.3.3A.3.3,0,0,0,6.873,17.6Z" transform="translate(-3.846 -10.554)" fill="none" stroke="#ffd880" stroke-width="0.337"/><path d="M6.2,20.966a.3.3,0,1,0,.3.3A.3.3,0,0,0,6.2,20.966Z" transform="translate(-3.472 -12.427)" fill="none" stroke="#ffd880" stroke-width="0.337"/><path d="M4.345,19.146a.3.3,0,1,0,.3.3A.3.3,0,0,0,4.345,19.146Z" transform="translate(-2.442 -11.416)" fill="none" stroke="#ffd880" stroke-width="0.337"/><path d="M2.487,9.873a.3.3,0,1,0-.3.3A.311.311,0,0,0,2.487,9.873Z" transform="translate(-1.243 -6.097)" fill="none" stroke="#ffd880" stroke-width="0.337"/><path d="M3.835,12.7a.3.3,0,1,0-.3.3A.3.3,0,0,0,3.835,12.7Z" transform="translate(-1.993 -7.67)" fill="none" stroke="#ffd880" stroke-width="0.337"/><path d="M5.019,15a.3.3,0,1,0,.3.3A.3.3,0,0,0,5.019,15Z" transform="translate(-2.816 -9.112)" fill="none" stroke="#ffd880" stroke-width="0.337"/><path d="M10.041,18.431a.3.3,0,1,0-.3-.3A.3.3,0,0,0,10.041,18.431Z" transform="translate(-5.607 -10.685)" fill="none" stroke="#ffd880" stroke-width="0.337"/><path d="M15.03,25.348a.3.3,0,1,0,.3.3A.3.3,0,0,0,15.03,25.348Z" transform="translate(-8.378 -14.861)" fill="none" stroke="#ffd880" stroke-width="0.337"/><path d="M9.03,24a.3.3,0,1,0,.3.3A.291.291,0,0,0,9.03,24Z" transform="translate(-5.045 -14.112)" fill="none" stroke="#ffd880" stroke-width="0.337"/><path d="M10.041,20.9a.3.3,0,1,0,.3.3A.283.283,0,0,0,10.041,20.9Z" transform="translate(-5.607 -12.39)" fill="none" stroke="#ffd880" stroke-width="0.337"/><path d="M11.558,25.449a.3.3,0,1,0,.3.3A.3.3,0,0,0,11.558,25.449Z" transform="translate(-6.449 -14.918)" fill="none" stroke="#ffd880" stroke-width="0.337"/><path d="M13.176,23.562a.3.3,0,1,0,.3.3A.3.3,0,0,0,13.176,23.562Z" transform="translate(-7.348 -13.869)" fill="none" stroke="#ffd880" stroke-width="0.337"/><path d="M16.476,22.243a.3.3,0,1,0-.3.3A.283.283,0,0,0,16.476,22.243Z" transform="translate(-9.015 -12.97)" fill="none" stroke="#ffd880" stroke-width="0.337"/><path d="M2.584,6.685a.764.764,0,1,0-.764-.764A.777.777,0,0,0,2.584,6.685Zm0-1.2a.449.449,0,1,1-.449.449A.461.461,0,0,1,2.584,5.487Z" transform="translate(-1.206 -3.644)" fill="none" stroke="#ffd880" stroke-width="0.337"/><path d="M13.007,6.622a.464.464,0,0,0-.524.449,5.428,5.428,0,0,1-4.195,5.273l1.3-2.307.015-.015A.6.6,0,0,0,9.652,9.8a.367.367,0,0,1,.165.27l.315-.015a.642.642,0,0,0-.539-.614c-.015-.015-.015-.045-.03-.06a.342.342,0,0,1,.15-.1.3.3,0,0,1,.255.015L10.1,9a.629.629,0,0,0-.494-.03.744.744,0,0,0-.285.195c-.015-.015-.03-.015-.045-.03s-.06-.015-.09-.03A.415.415,0,0,1,9.2,8.974a.3.3,0,0,1,.18-.18l-.135-.285a.625.625,0,0,0-.345.36.761.761,0,0,0-.045.255.679.679,0,0,0-.285.165A.323.323,0,0,1,8.648,9l-.24-.21a.656.656,0,0,0-.015.839c0,.03-.015.045-.015.075a.5.5,0,0,1-.6.375A1.577,1.577,0,0,0,6.1,10.7a1.814,1.814,0,0,0-.464-.629L7.345,8.839l.06-.06a.4.4,0,0,0,.075-.09.353.353,0,0,1,.045.3l.3.1A.661.661,0,0,0,7.6,8.345V8.33a.752.752,0,0,0-.03-.18.344.344,0,0,1,.39.06l.225-.225a.662.662,0,0,0-.764-.12c.015.06,0,.045,0,.03a.376.376,0,0,1,.09-.21.34.34,0,0,1,.24-.09V7.281a.67.67,0,0,0-.464.18.679.679,0,0,0-.165.285c-.03,0-.06-.015-.1-.015a1.156,1.156,0,0,0-.225.03.343.343,0,0,1,.18-.225l-.135-.285A.656.656,0,0,0,6.476,8l-.045.09a.579.579,0,0,1-.7.225,17.153,17.153,0,0,0-2.217-.779V7.221L5.7,7.67l.375-1.738L5.037,6.5l-.614-.824-.929.659a.843.843,0,0,1-.719-.464h.689a.4.4,0,1,0,0-.794H2.775a.881.881,0,0,1,.7-.464l.794.884.749-.749.854.854V3.85H4.184l-1-1h0L2.431,1.753l-.614.914-.629-.914L.438,2.846h0V7.131a6.547,6.547,0,0,0,13.094.015A.512.512,0,0,0,13.007,6.622ZM3.464,5.378a.09.09,0,1,1,0,.18H2.685v-.09a.19.19,0,0,1,.015-.09ZM2.79,2.846H2.056l.36-.539Zm-1.6-.539.36.539H.828Zm5.8,11.056A6.247,6.247,0,0,1,.753,7.131V3.161H3.045l1,1H5.577v.674L5.037,4.3l-.749.749L3.614,4.3H3.539a1.184,1.184,0,1,0,0,2.367h.045l.764-.539.6.779.674-.375-.15.764L3.225,6.831v.944l.12.03a19.7,19.7,0,0,1,2.262.779.888.888,0,0,0,1.124-.33l.015-.03a.651.651,0,0,1,.06-.1.233.233,0,0,1,.21-.075.3.3,0,0,1,.21.09.233.233,0,0,1,.075.21.3.3,0,0,1-.09.21l-.015.015a.015.015,0,0,1-.015.015L5.142,10.052l.165.135a1.3,1.3,0,0,1,.6.914h.015l.3.1A1.264,1.264,0,0,1,7.749,10.4a.824.824,0,0,0,.974-.629V9.753a.3.3,0,0,1,.03-.135.327.327,0,0,1,.419-.18.321.321,0,0,1,.15.18.415.415,0,0,1,0,.27L7.674,12.779l.33-.06A5.761,5.761,0,0,0,12.8,7.071c0-.09.075-.135.21-.135a.2.2,0,0,1,.21.21A6.234,6.234,0,0,1,6.985,13.363Z" transform="translate(-0.438 -1.753)" fill="none" stroke="#ffd880" stroke-width="0.337"/></g></g></g></g></svg>